HIERARCHY
ROOT SpineBase
{
  OFFSET 0.000000 0.000000 0.000000
  CHANNELS 6 Xposition Yposition Zposition Zrotation Xrotation Yrotation
  JOINT SpineMid
  {
    OFFSET 0.000000 30.277518 0.000000
    CHANNELS 3 Zrotation Xrotation Yrotation
    JOINT SpineShoulder
    {
      OFFSET 0.083455 22.369875 -0.546971
      CHANNELS 3 Zrotation Xrotation Yrotation
      JOINT Neck
      {
        OFFSET -0.024769 7.406257 -0.523981
        CHANNELS 3 Zrotation Xrotation Yrotation
        JOINT Head
        {
          OFFSET 4.867669 12.632149 1.207897
          CHANNELS 3 Zrotation Xrotation Yrotation
          End Site
          {
            OFFSET 0 0 0
          }
        }
      }
      JOINT ShoulderLeft
      {
        OFFSET -13.179648 -3.133508 -8.743545
        CHANNELS 3 Zrotation Xrotation Yrotation
        JOINT ElbowLeft
        {
          OFFSET -5.967742 -24.543982 -0.642116
          CHANNELS 3 Zrotation Xrotation Yrotation
          JOINT WristLeft
          {
            OFFSET -0.937687 -19.891990 -5.549448
            CHANNELS 3 Zrotation Xrotation Yrotation
            JOINT HandLeft
            {
              OFFSET 0.443487 -5.895576 0.829300
              CHANNELS 3 Zrotation Xrotation Yrotation
              JOINT HandTipLeft
              {
                OFFSET -0.315168 -4.650847 -0.829193
                CHANNELS 3 Zrotation Xrotation Yrotation
                End Site
                {
                  OFFSET 0 0 0
                }
              }
              JOINT ThumbLeft
              {
                OFFSET -2.830020 0.946397 -2.420440
                CHANNELS 3 Zrotation Xrotation Yrotation
                End Site
                {
                  OFFSET 0 0 0
                }
              }
            }
          }
        }
      }
      JOINT ShoulderRight
      {
        OFFSET 14.922866 -5.859895 3.375871
        CHANNELS 3 Zrotation Xrotation Yrotation
        JOINT ElbowRight
        {
          OFFSET 2.351156 -26.944127 4.378333
          CHANNELS 3 Zrotation Xrotation Yrotation
          JOINT WristRight
          {
            OFFSET -0.851323 -19.723860 -2.946789
            CHANNELS 3 Zrotation Xrotation Yrotation
            JOINT HandRight
            {
              OFFSET -0.268074 -4.842171 0.366794
              CHANNELS 3 Zrotation Xrotation Yrotation
              JOINT HandTipRight
              {
                OFFSET -0.560905 -6.119419 1.346132
                CHANNELS 3 Zrotation Xrotation Yrotation
                End Site
                {
                  OFFSET 0 0 0
                }
              }
              JOINT ThumbRight
              {
                OFFSET 2.452167 0.939166 -1.702994
                CHANNELS 3 Zrotation Xrotation Yrotation
                End Site
                {
                  OFFSET 0 0 0
                }
              }
            }
          }
        }
      }
    }
  }
  JOINT HipLeft
  {
    OFFSET -6.350550 0.984328 -5.494533
    CHANNELS 3 Zrotation Xrotation Yrotation
    JOINT KneeLeft
    {
      OFFSET -9.001643 -28.149875 5.371122
      CHANNELS 3 Zrotation Xrotation Yrotation
      JOINT AnkleLeft
      {
        OFFSET -4.247560 -31.258103 4.223789
        CHANNELS 3 Zrotation Xrotation Yrotation
        JOINT FootLeft
        {
          OFFSET 2.647306 -4.380138 -7.229165
          CHANNELS 3 Zrotation Xrotation Yrotation
          End Site
          {
            OFFSET 0 0 0
          }
        }
      }
    }
  }
  JOINT HipRight
  {
    OFFSET 5.638686 0.430838 -1.174812
    CHANNELS 3 Zrotation Xrotation Yrotation
    JOINT KneeRight
    {
      OFFSET -6.670927 -30.245593 8.074255
      CHANNELS 3 Zrotation Xrotation Yrotation
      JOINT AnkleRight
      {
        OFFSET -4.957356 -28.279020 6.268299
        CHANNELS 3 Zrotation Xrotation Yrotation
        JOINT FootRight
        {
          OFFSET 2.791300 -3.101032 -10.766763
          CHANNELS 3 Zrotation Xrotation Yrotation
          End Site
          {
            OFFSET 0 0 0
          }
        }
      }
    }
  }
}
MOTION
Frames: 16
Frame Time: 0.033333
34.382991 67.689161 333.990682 -0.000000 0.000000 -19.814086 0.000000 0.000000 19.814086 -0.000000 0.000000 0.000000 -0.000000 0.000000 0.000000 0.000000 0.000000 0.000000 -0.000000 0.000000 0.000000 -0.000000 0.000000 0.000000 -0.000000 0.000000 0.000000 -0.000000 0.000000 0.000000 0.000000 0.000000 0.000000 0.000000 0.000000 0.000000 -0.000000 0.000000 0.000000 -0.000000 0.000000 0.000000 -0.000000 0.000000 0.000000 -0.000000 0.000000 0.000000 0.000000 0.000000 0.000000 0.000000 0.000000 0.000000 0.000000 0.000000 19.814086 -0.000000 0.000000 0.000000 -0.000000 0.000000 0.000000 0.000000 0.000000 0.000000 0.000000 0.000000 19.814086 -0.000000 0.000000 0.000000 -0.000000 0.000000 0.000000 0.000000 0.000000 0.000000
34.335926 67.660389 333.958598 -0.128378 0.058315 -19.889441 0.140559 -0.011161 19.889520 -0.000000 0.000000 0.000000 -0.000000 0.000000 0.000000 0.000000 0.000000 0.000000 -0.000000 0.000000 0.000000 -0.000000 0.000000 0.000000 0.421432 1.092897 0.137622 1.598630 -1.202052 -0.459146 0.000000 0.000000 0.000000 0.000000 0.000000 0.000000 -0.000000 0.000000 0.000000 0.887169 -0.054887 -0.129806 -1.087408 2.649955 -0.023428 0.292775 -0.690727 0.011986 0.000000 0.000000 0.000000 0.000000 0.000000 0.000000 0.140559 -0.011161 19.889520 -0.217094 -0.813700 0.079599 -2.101742 -7.255324 -1.464038 0.000000 0.000000 0.000000 0.469412 0.878268 19.890570 -1.324020 -1.793435 0.006525 0.712326 1.068758 -0.036223 0.000000 0.000000 0.000000
34.280529 67.637675 333.914720 -0.261754 0.123933 -19.935739 0.288326 -0.027256 19.936091 -0.000000 0.000000 0.000000 -0.000000 0.000000 0.000000 0.000000 0.000000 0.000000 -0.000000 0.000000 0.000000 -0.000000 0.000000 0.000000 0.685242 1.958962 0.232504 2.770999 -2.252598 -0.728629 0.000000 0.000000 0.000000 0.000000 0.000000 0.000000 -0.000000 0.000000 0.000000 1.652095 -0.081910 -0.242304 -2.106320 5.390627 -0.062053 0.598517 -1.642110 0.054208 0.000000 0.000000 0.000000 0.000000 0.000000 0.000000 0.078432 1.027461 19.628255 -0.537575 -2.538724 0.443544 -4.402640 -14.004145 -2.912575 0.000000 0.000000 0.000000 0.969813 1.611506 19.958439 -2.425393 -3.119254 -0.046092 1.224030 1.812003 -0.066059 0.000000 0.000000 0.000000
34.216800 67.621017 333.859047 -0.400174 0.196872 -19.952987 0.443335 -0.048492 19.953862 -0.000000 0.000000 0.000000 -0.000000 0.000000 0.000000 0.000000 0.000000 0.000000 -0.000000 0.000000 0.000000 -0.000000 0.000000 0.000000 0.814908 2.645010 0.295621 3.620965 -3.183433 -0.867527 0.000000 0.000000 0.000000 0.000000 0.000000 0.000000 -0.000000 0.000000 0.000000 2.318191 -0.083856 -0.341409 -3.080266 8.098419 -0.102795 0.904037 -2.867645 0.128199 0.000000 0.000000 0.000000 0.000000 0.000000 0.000000 0.205554 1.421638 19.540608 -0.774073 -3.463804 0.591191 -6.642443 -19.595319 -4.148426 0.000000 0.000000 0.000000 1.489143 2.137482 20.022374 -3.316414 -3.992663 -0.138247 1.579737 2.299740 -0.085313 0.000000 0.000000 0.000000
34.144740 67.610416 333.791579 -0.543685 0.277155 -19.941112 0.605612 -0.075102 19.942824 -0.000000 0.000000 0.000000 -0.000000 0.000000 0.000000 0.000000 0.000000 0.000000 -0.000000 0.000000 0.000000 -0.000000 0.000000 0.000000 0.822911 3.182627 0.333488 4.217685 -4.021205 -0.911189 0.000000 0.000000 0.000000 0.000000 0.000000 0.000000 -0.000000 0.000000 0.000000 2.903304 -0.062583 -0.430069 -4.022613 10.600797 -0.132215 1.191078 -4.355488 0.229559 0.000000 0.000000 0.000000 0.000000 0.000000 0.000000 0.397118 1.719076 19.461113 -0.997948 -4.160547 0.689125 -8.546682 -23.643908 -4.934286 0.000000 0.000000 0.000000 2.011260 2.402284 20.085898 -3.988755 -4.410184 -0.254248 1.806279 2.573077 -0.092010 0.000000 0.000000 0.000000
34.064348 67.605872 333.712318 -0.692340 0.364807 -19.899966 0.775171 -0.107344 19.902896 -0.000000 0.000000 0.000000 -0.000000 0.000000 0.000000 0.000000 0.000000 0.000000 -0.000000 0.000000 0.000000 -0.000000 0.000000 0.000000 0.713177 3.592609 0.349669 4.608015 -4.787766 -0.880619 0.000000 0.000000 0.000000 0.000000 0.000000 0.000000 -0.000000 0.000000 0.000000 3.421261 -0.019201 -0.510561 -4.936145 12.694127 -0.139036 1.437395 -6.065892 0.347070 0.000000 0.000000 0.000000 0.000000 0.000000 0.000000 0.655384 1.909379 19.392355 -1.212542 -4.628039 0.737066 -9.893426 -26.007364 -5.060997 0.000000 0.000000 0.000000 2.517931 2.370973 20.150233 -4.425792 -4.367746 -0.381551 1.918501 2.653214 -0.085021 0.000000 0.000000 0.000000
33.950136 67.614609 333.591758 -0.893324 0.500236 -19.840607 1.010079 -0.167293 19.845981 -0.797720 0.181747 -0.054573 1.678645 -0.310018 0.026638 0.000000 0.000000 0.000000 0.797897 -0.180969 0.057098 -0.000000 0.000000 0.000000 0.307714 3.409557 0.291844 4.691443 -4.916970 -0.742333 0.000000 0.000000 0.000000 0.000000 0.000000 0.000000 0.797897 -0.180969 0.057098 4.000893 -0.061527 -0.594119 -6.657028 16.281541 -0.125700 3.043630 -11.852997 1.234490 0.000000 0.000000 0.000000 0.000000 0.000000 0.000000 1.089425 2.003903 19.352314 -1.457986 -4.919279 0.737347 -8.231912 -19.973425 -1.443113 0.000000 0.000000 0.000000 3.087137 1.552643 20.300273 -4.369593 -3.085919 -0.574552 1.803601 2.211059 -0.022801 0.000000 0.000000 0.000000
33.830411 67.626982 333.463087 -1.086327 0.636447 -19.743494 1.237467 -0.231964 19.752033 -0.911468 0.246802 -0.061709 1.871457 -0.365872 0.025557 0.000000 0.000000 0.000000 0.911741 -0.245789 0.065628 0.782588 -0.620395 -0.185186 -1.020834 4.478510 0.464696 4.695162 -5.592603 -0.568720 0.000000 0.000000 0.000000 0.000000 0.000000 0.000000 0.911741 -0.245789 0.065628 4.173013 -0.229074 -0.606630 -5.130638 18.054332 -0.291003 0.048934 -13.825625 0.371026 0.000000 0.000000 0.000000 0.000000 0.000000 0.000000 1.577164 1.976311 19.319607 -1.743139 -5.003213 0.681057 -8.469826 -19.924328 -0.886453 0.000000 0.000000 0.000000 3.525187 0.595249 20.396135 -4.021861 -1.623306 -0.729172 1.568905 1.664972 0.033279 0.000000 0.000000 0.000000
33.742344 67.643859 333.361585 -1.218745 0.731208 -19.592151 1.393380 -0.280058 19.603334 -0.976895 0.287373 -0.065718 1.914175 -0.357929 0.014192 0.000000 0.000000 0.000000 0.977236 -0.286210 0.070609 0.907964 -0.707002 -0.214828 -1.702673 4.565335 0.445232 5.534351 -6.006218 -0.452968 0.000000 0.000000 0.000000 0.000000 0.000000 0.000000 0.977236 -0.286210 0.070609 4.682950 0.151319 -0.713861 -6.832935 15.093807 -0.028833 0.550095 -10.806204 0.165522 0.000000 0.000000 0.000000 0.000000 0.000000 0.000000 1.889084 1.795519 19.244407 -1.788061 -4.799366 0.616092 -8.926753 -19.455278 0.650396 0.000000 0.000000 0.000000 3.915865 0.506282 20.330078 -4.240312 -1.588090 -0.792227 1.578493 1.748674 0.019361 0.000000 0.000000 0.000000
33.678293 67.645621 333.290533 -1.306680 0.777558 -19.407952 1.490813 -0.299001 19.420709 -1.015091 0.296503 -0.068214 1.912065 -0.282063 -0.012659 0.000000 0.000000 0.000000 1.015456 -0.295248 0.073457 1.140930 -0.950107 -0.264794 -1.999143 5.745422 0.580485 4.452969 -6.967062 -0.342458 0.000000 0.000000 0.000000 0.000000 0.000000 0.000000 1.015456 -0.295248 0.073457 5.172192 0.707007 -0.836557 -9.473998 12.478171 0.153795 2.503803 -8.793655 0.405420 0.000000 0.000000 0.000000 0.000000 0.000000 0.000000 2.203672 1.609551 19.160478 -1.993033 -4.432204 0.490635 -9.121651 -19.213558 1.685742 0.000000 0.000000 0.000000 4.104105 -0.024912 20.248029 -3.930747 -0.700324 -0.868896 1.363674 1.367888 0.046420 0.000000 0.000000 0.000000
33.633224 67.644777 333.252118 -1.362507 0.786361 -19.247101 1.545574 -0.293077 19.260404 -1.033424 0.306028 -0.069347 1.033808 -0.304728 0.074856 0.000000 0.000000 0.000000 1.033808 -0.304728 0.074856 1.247863 -1.058403 -0.287610 -1.851389 5.860805 0.630563 2.511759 -7.058824 -0.256404 0.000000 0.000000 0.000000 0.000000 0.000000 0.000000 1.033808 -0.304728 0.074856 5.619904 1.145783 -0.946565 -11.409948 8.465973 0.222570 4.205081 -4.815032 0.473081 0.000000 0.000000 0.000000 0.000000 0.000000 0.000000 2.619675 1.402490 19.150930 -2.415277 -3.827403 0.279552 -9.024757 -19.396160 1.926015 0.000000 0.000000 0.000000 4.179828 -0.185955 20.116824 -3.751248 -0.470641 -0.868144 1.724797 3.299758 0.062708 0.000000 0.000000 0.000000
33.617490 67.636934 333.238754 -1.374462 0.773249 -19.193114 0.739137 -0.334170 19.181786 -0.247414 0.134961 -0.051198 1.034097 -0.348364 0.075123 0.000000 0.000000 0.000000 1.034097 -0.348364 0.075123 1.284858 -1.117065 -0.294234 -1.334460 6.298781 0.713125 1.699324 -8.503396 -0.270898 0.000000 0.000000 0.000000 0.000000 0.000000 0.000000 1.034097 -0.348364 0.075123 5.835558 1.247901 -0.990614 -13.069814 9.575002 0.229204 7.941871 -7.872446 1.829179 0.000000 0.000000 0.000000 0.000000 0.000000 0.000000 3.007241 1.161372 19.266222 -2.866135 -3.084087 0.041848 -8.990046 -19.731162 2.304259 0.000000 0.000000 0.000000 4.171748 0.089502 20.019827 -3.760684 -1.029315 -0.777271 1.152373 1.595913 -0.040589 0.000000 0.000000 0.000000
33.625254 67.633189 333.235271 -1.345978 0.746903 -19.051637 1.516058 -0.266463 19.063936 -1.010288 0.368129 -0.067019 1.010739 -0.366890 0.073500 0.000000 0.000000 0.000000 1.010739 -0.366890 0.073500 1.044835 -0.826079 -0.245621 -0.995102 5.520183 0.623935 2.566328 -8.552880 -0.279088 0.000000 0.000000 0.000000 0.000000 0.000000 0.000000 0.351094 0.118580 0.007338 6.849479 1.011280 -0.951584 -15.235579 10.369105 0.253274 12.129271 -9.484146 3.301480 0.000000 0.000000 0.000000 0.000000 0.000000 0.000000 3.141787 1.089649 19.190782 -3.125698 -2.744805 -0.068414 -8.966158 -20.106296 2.384719 0.000000 0.000000 0.000000 4.148210 -0.030326 19.898888 -3.640093 -0.846174 -0.781433 1.064066 1.534181 -0.047560 0.000000 0.000000 0.000000
33.634461 67.624672 333.223040 -1.329409 0.703323 -19.003937 0.676437 -0.290901 18.991451 -0.229914 0.160271 -0.049595 1.014897 -0.367073 0.073809 0.000000 0.000000 0.000000 1.180076 -1.146934 0.261469 0.431834 0.244322 -0.330762 0.012658 4.912629 0.533539 3.644777 -8.545714 -0.446801 0.000000 0.000000 0.000000 0.000000 0.000000 0.000000 1.014897 -0.367073 0.073809 6.600988 1.947584 -1.183588 -17.763746 9.280513 0.180829 16.423487 -7.749705 4.284459 0.000000 0.000000 0.000000 0.000000 0.000000 0.000000 3.278098 1.177779 19.172952 -3.481917 -2.674040 -0.141512 -8.753612 -19.994319 2.540582 0.000000 0.000000 0.000000 4.183417 0.383082 19.815286 -3.947738 -1.545956 -0.736436 -0.343275 -3.058789 0.837078 0.000000 0.000000 0.000000
33.634528 67.606461 333.185810 -1.340568 0.676143 -19.063720 0.619332 -0.354235 19.048218 -0.255834 0.176602 -0.055434 1.127123 -0.314176 0.081766 0.000000 0.000000 0.000000 1.119087 -1.158735 0.287291 0.012271 0.844508 -0.205718 0.281290 4.491679 0.368554 5.341691 -8.893708 -0.444480 0.000000 0.000000 0.000000 0.000000 0.000000 0.000000 1.127123 -0.314176 0.081766 7.044977 2.527568 -1.317690 -20.369535 6.894173 -0.055668 19.709243 -1.928490 4.071045 0.000000 0.000000 0.000000 0.000000 0.000000 0.000000 3.164542 1.339817 19.166243 -3.453338 -3.008527 -0.069147 -8.609123 -19.443881 2.708489 0.000000 0.000000 0.000000 4.329799 1.058262 19.827337 -4.512815 -2.638033 -0.694511 -1.257474 -6.621160 1.044995 0.000000 0.000000 0.000000
33.621349 67.594940 333.141426 -1.381114 0.657624 -19.065977 0.538717 -0.424440 19.046057 -0.298010 0.193097 -0.064676 1.165868 -1.054564 0.408607 0.000000 0.000000 0.000000 1.153663 -1.155021 0.311665 0.706563 0.086446 -0.340790 0.017813 5.738746 0.543529 4.977324 -9.427877 -0.478749 0.000000 0.000000 0.000000 0.000000 0.000000 0.000000 1.308979 -0.271608 0.094787 7.449302 3.179386 -1.456780 -22.976715 5.072083 -0.387843 22.119037 3.938949 3.488314 0.000000 0.000000 0.000000 0.000000 0.000000 0.000000 3.246078 1.640363 19.111646 -3.649647 -3.484593 -0.011601 -8.479470 -18.859164 2.941883 0.000000 0.000000 0.000000 4.559664 1.215256 19.872395 -4.898298 -2.777460 -0.769722 -1.843866 -9.267304 1.197709 0.000000 0.000000 0.000000
